<svg height="621.92557" viewBox="0 0 578.0013 621.92557" width="578.0013" xmlns="http://www.w3.org/2000/svg"><path d="m677.64241 491.89724-249.84894 64.339a33.03735 33.03735 0 0 1 -40.18683-23.728l-75.5609-293.42724a33.03734 33.03734 0 0 1 23.728-40.18683l232.44363-59.85691 59.49463 26.63379 73.65843 286.03936a33.03734 33.03734 0 0 1 -23.72802 40.18683z" fill="#f2f2f2" transform="translate(-310.99935 -139.03722)"/><path d="m338.14273 208.094a23.52653 23.52653 0 0 0 -16.89723 28.61789l75.5609 293.42725a23.52654 23.52654 0 0 0 28.6179 16.89723l249.84894-64.339a23.52654 23.52654 0 0 0 16.89723-28.61789l-72.51713-281.6073-52.285-23.40643z" fill="#fff" transform="translate(-310.99935 -139.03722)"/><path d="m627.07719 167.18472-38.66749 9.95733a10.99077 10.99077 0 0 1 -13.38436-7.9027l-7.35434-28.55927a.68692.68692 0 0 1 .944-.7991l58.56966 26.01073a.68692.68692 0 0 1 -.10747 1.29301z" fill="#f2f2f2" transform="translate(-310.99935 -139.03722)"/><path d="m606.73438 417.76533-113.75273 29.29267a5.49538 5.49538 0 0 1 -2.74083-10.64353l113.75273-29.29267a5.49538 5.49538 0 1 1 2.74083 10.64353z" fill="#ccc" transform="translate(-310.99935 -139.03722)"/><path d="m633.31182 430.07333-135.705 34.9456a5.49538 5.49538 0 0 1 -2.74082-10.64353l135.705-34.94561a5.49539 5.49539 0 0 1 2.74084 10.64354z" fill="#ccc" transform="translate(-310.99935 -139.03722)"/><circle cx="135.55495" cy="323.87767" fill="#e6e6e6" r="19.42315"/><g transform="translate(-310.99935 -139.03722)"><path d="m594.63919 366.93361-151.07494 38.88909a17.01917 17.01917 0 0 1 -20.70125-12.22539l-31.6597-122.9905a17.01916 17.01916 0 0 1 12.22538-20.7012l151.075-38.88909a17.01916 17.01916 0 0 1 20.7012 12.22539l31.65971 122.9905a17.01917 17.01917 0 0 1 -12.2254 20.7012z" fill="#fff"/><path d="m594.63919 366.93361-151.07494 38.88909a17.01917 17.01917 0 0 1 -20.70125-12.22539l-31.6597-122.9905a17.01916 17.01916 0 0 1 12.22538-20.7012l151.075-38.88909a17.01916 17.01916 0 0 1 20.7012 12.22539l31.65971 122.9905a17.01917 17.01917 0 0 1 -12.2254 20.7012zm-190.71189-115.09115a15.017 15.017 0 0 0 -10.7871 18.26578l31.6597 122.9905a15.017 15.017 0 0 0 18.26577 10.7871l151.075-38.88908a15.017 15.017 0 0 0 10.7871-18.26578l-31.65977-122.9905a15.017 15.017 0 0 0 -18.26578-10.7871z" fill="#e6e6e6"/><path d="m546.83934 252.37075-76.24555 19.62681a2.73087 2.73087 0 0 1 -3.30848-1.71854 2.63064 2.63064 0 0 1 1.85283-3.33925l77.61329-19.97889c3.13521 1.58858 2.31023 4.83781.087 5.41011z" fill="#f2f2f2"/><path d="m550.282 265.74474-76.24555 19.62681a2.73089 2.73089 0 0 1 -3.30845-1.71855 2.63065 2.63065 0 0 1 1.85284-3.33925l77.61329-19.97889c3.13521 1.58858 2.31022 4.83781.087 5.41011z" fill="#f2f2f2"/><path d="m459.51412 297.22917-23.2694 5.98992a2.962 2.962 0 0 1 -3.60325-2.12795l-7.06858-27.45979a2.962 2.962 0 0 1 2.12794-3.60325l23.2694-5.98991a2.963 2.963 0 0 1 3.60325 2.12795l7.06859 27.45982a2.962 2.962 0 0 1 -2.12795 3.60324z" fill="#e6e6e6"/><path d="m557.10914 293.18514-116.36468 29.95411a2.73087 2.73087 0 0 1 -3.30847-1.71854 2.63062 2.63062 0 0 1 1.85284-3.33925l117.73335-30.30646c3.13521 1.58859 2.31022 4.83781.087 5.41012z" fill="#f2f2f2"/><path d="m560.55283 306.563-116.36469 29.95415a2.73086 2.73086 0 0 1 -3.30846-1.71854 2.63061 2.63061 0 0 1 1.85283-3.33926l117.73335-30.30643c3.13521 1.58858 2.31022 4.83781.087 5.41011z" fill="#f2f2f2"/><path d="m563.99426 319.93218-116.36469 29.95412a2.73086 2.73086 0 0 1 -3.30846-1.71854 2.63061 2.63061 0 0 1 1.85283-3.33926l117.73335-30.30643c3.13521 1.58858 2.31023 4.83781.087 5.41011z" fill="#f2f2f2"/><path d="m567.43768 333.30908-116.36468 29.95412a2.73087 2.73087 0 0 1 -3.30847-1.71854 2.63063 2.63063 0 0 1 1.85284-3.33926l117.73335-30.3064c3.13521 1.58858 2.31022 4.83781.087 5.41011z" fill="#f2f2f2"/><path d="m570.87937 346.67924-116.36468 29.95412a2.73088 2.73088 0 0 1 -3.30847-1.71855 2.63062 2.63062 0 0 1 1.85284-3.33925l117.73335-30.30643c3.13521 1.58858 2.31022 4.83781.087 5.41011z" fill="#f2f2f2"/><path d="m447.98728 469.72335a2.01449 2.01449 0 0 1 -1.27407-.08782l-.02505-.01034-5.29126-2.24319a2.02852 2.02852 0 1 1 1.58747-3.73356l3.42865 1.45835 4.49293-10.56929a2.02766 2.02766 0 0 1 2.65942-1.07259l.00068.00028-.027.06912.02812-.06941a2.03011 2.03011 0 0 1 1.0723 2.66008l-5.28586 12.42716a2.02886 2.02886 0 0 1 -1.36522 1.16845z" fill="#fff"/><path d="m773.47457 603.71475h-258a33.03734 33.03734 0 0 1 -33-33v-303a33.03734 33.03734 0 0 1 33-33h240.02685l50.97315 40.62891v295.37109a33.03734 33.03734 0 0 1 -33 33z" fill="#e6e6e6"/><path d="m515.47446 244.21475a23.52654 23.52654 0 0 0 -23.5 23.5v303a23.52653 23.52653 0 0 0 23.5 23.5h258a23.52653 23.52653 0 0 0 23.5-23.5v-290.79443l-44.79614-35.70557z" fill="#fff"/><path d="m723.29356 332.319h-117.46379a5.49538 5.49538 0 0 1 0-10.99076h117.46379a5.49538 5.49538 0 1 1 0 10.99076z" fill="#5731a9"/><path d="m745.962 350.86594h-140.13223a5.49539 5.49539 0 0 1 0-10.99077h140.13223a5.49539 5.49539 0 1 1 0 10.99077z" fill="#5731a9"/><path d="m723.29425 404.44277h-117.46a5.495 5.495 0 1 0 0 10.99h117.46a5.495 5.495 0 0 0 0-10.99z" fill="#ccc"/><path d="m745.96417 422.99281h-140.12988a5.495 5.495 0 1 0 0 10.99h140.12988a5.495 5.495 0 0 0 0-10.99z" fill="#ccc"/><path d="m723.29356 498.55433h-117.46379a5.49538 5.49538 0 0 1 0-10.99076h117.46379a5.49538 5.49538 0 1 1 0 10.99076z" fill="#ccc"/><path d="m745.962 517.10125h-140.13223a5.49539 5.49539 0 0 1 0-10.99077h140.13223a5.49539 5.49539 0 1 1 0 10.99077z" fill="#ccc"/></g><circle cx="245.91553" cy="197.05988" fill="#5731a9" r="19.42315"/><path d="m554.99015 343.50645a2.0144 2.0144 0 0 1 -1.21191-.40277l-.02168-.01626-4.5647-3.49185a2.02852 2.02852 0 1 1 2.46838-3.21972l2.95665 2.26729 6.98671-9.11494a2.02767 2.02767 0 0 1 2.84288-.3755l.00058.00044-.04336.06021.04454-.06021a2.03011 2.03011 0 0 1 .37507 2.84345l-8.2179 10.71637a2.02892 2.02892 0 0 1 -1.61348.79109z" fill="#fff" transform="translate(-310.99935 -139.03722)"/><path d="m578.33429 419.21278a19.42256 19.42256 0 0 1 -19.41992 19.43 4.17626 4.17626 0 0 1 -.5-.02 19.422 19.422 0 1 1 19.91992-19.41z" fill="#ccc" transform="translate(-310.99935 -139.03722)"/><circle cx="245.91553" cy="363.29519" fill="#ccc" r="19.42315"/><path d="m805.48234 276.65121h-39.929a10.99077 10.99077 0 0 1 -10.99076-10.99077v-29.491a.68692.68692 0 0 1 1.11347-.53844l50.23281 39.79483a.68692.68692 0 0 1 -.42652 1.22538z" fill="#ccc" transform="translate(-310.99935 -139.03722)"/><path d="m578.33429 419.21278a19.42256 19.42256 0 0 1 -19.41992 19.43 4.17626 4.17626 0 0 1 -.5-.02 42.05076 42.05076 0 0 1 3.77-38.56 19.43323 19.43323 0 0 1 16.14992 19.15z" fill="#5731a9" transform="translate(-310.99935 -139.03722)"/><path d="m600.33429 409.94277a5.50988 5.50988 0 0 1 5.5-5.5h29.27a41.57257 41.57257 0 0 1 3.60986 10.99h-32.87986a5.50129 5.50129 0 0 1 -5.5-5.49z" fill="#5731a9" transform="translate(-310.99935 -139.03722)"/><path d="m639.39435 422.99281a41.92449 41.92449 0 0 1 -1.46 10.99h-32.1001a5.495 5.495 0 1 1 0-10.99z" fill="#5731a9" transform="translate(-310.99935 -139.03722)"/><path d="m711.816 490.77021a6.00013 6.00013 0 0 1 -8.24672 1.9979l-70.0049-42.70029a6 6 0 0 1 6.24883-10.24462l70.00489 42.70029a6.00014 6.00014 0 0 1 1.9979 8.24672z" fill="#3f3d56" transform="translate(-310.99935 -139.03722)"/><path d="m641.8111 448.06992a48 48 0 1 1 -15.98318-65.97376 48.05436 48.05436 0 0 1 15.98318 65.97376zm-71.71233-43.74176a36 36 0 1 0 49.48033-11.98738 36.04071 36.04071 0 0 0 -49.48033 11.98738z" fill="#3f3d56" transform="translate(-310.99935 -139.03722)"/><circle cx="484.60301" cy="267.17256" fill="#a0616a" r="24.56103"/><path d="m794.015 543.90119a11.002 11.002 0 0 1 8.32251-14.15136 10.46752 10.46752 0 0 1 1.45923-.17969l25.87158-41.52344-23.63232-22.46679a9.43208 9.43208 0 1 1 13.1206-13.55274l32.6294 32.17383.06567.08008a8.54468 8.54468 0 0 1 -.59448 10.18457l-36.25 42.873a10.301 10.301 0 0 1 .27 1.0459 11.0026 11.0026 0 0 1 -9.875 13.11621q-.46839.041-.93213.041a11.0367 11.0367 0 0 1 -10.45506-7.64057z" fill="#a0616a" transform="translate(-310.99935 -139.03722)"/><path d="m444.151 609.001-12.26-.001-5.832-47.288 18.094.001z" fill="#a0616a"/><path d="m758.2767 759.92208-39.53051-.00146v-.5a15.38605 15.38605 0 0 1 15.38647-15.38623h.001l24.1438.001z" fill="#2f2e41" transform="translate(-310.99935 -139.03722)"/><path d="m566.007 592.05-10.534 6.272-29.205-37.646 15.547-9.257z" fill="#a0616a"/><path d="m885.77238 739.69878-33.96586 20.2233-.25581-.4296a15.386 15.386 0 0 1 5.34836-21.09206l.00084-.0005 20.74515-12.35158z" fill="#2f2e41" transform="translate(-310.99935 -139.03722)"/><path d="m735.512 727.21272c-8.21289-96.70606-13.09863-186.54492 16.92408-223.19336l.23217-.28418 50.52564 20.21094.08325.18066c.17041.37109 16.97388 37.333 13.0542 62.19434l12.46266 57.32812 40.63574 68.041a4.50136 4.50136 0 0 1 -2.05074 6.42776l-17.65918 7.76953a4.52142 4.52142 0 0 1 -5.64844-1.76562l-44.2041-72.08008-24.96778-55.28613a1.50028 1.50028 0 0 0 -2.85888.459l-13.8401 130.09665a4.4918 4.4918 0 0 1 -4.47461 4.02441h-13.72827a4.53045 4.53045 0 0 1 -4.48564-4.12304z" fill="#2f2e41" transform="translate(-310.99935 -139.03722)"/><path d="m752.60628 504.786-.24072-.11523-.0376-.26465c-1.88745-13.21.34668-27.8877 6.63989-43.625a34.63634 34.63634 0 0 1 40.20191-20.74317 34.59441 34.59441 0 0 1 22.06055 16.96387 34.2209 34.2209 0 0 1 2.3728 27.4248c-7.93384 23.2002-18.22583 44.90723-18.32886 45.124l-.21558.45312z" fill="#5731a9" transform="translate(-310.99935 -139.03722)"/><path d="m697.48021 471.88251a11.002 11.002 0 0 1 16.16979 2.83982 10.46856 10.46856 0 0 1 .67932 1.3039l47.95411 9.69217 12.7683-30.00357a9.43208 9.43208 0 1 1 17.28928 7.54372l-18.71 41.83025-.052.08956a8.54469 8.54469 0 0 1 -9.74785 3.00972l-52.8527-18.94078a10.30273 10.30273 0 0 1 -.88511.61918 11.00261 11.00261 0 0 1 -15.74382-4.6565q-.20244-.42436-.36484-.85874a11.0367 11.0367 0 0 1 3.49552-12.46873z" fill="#a0616a" transform="translate(-310.99935 -139.03722)"/><path d="m884.33087 432.51247c-2.36572-4.19178-5.8125-8.03119-10.36914-9.58069-5.88476-2.001-12.25683.12964-18.30713 1.55218-4.66162 1.09595-9.53173 1.76679-14.23046.84192-4.69825-.92492-9.23047-3.65924-11.36817-7.94409-3.145-6.30359-.4956-13.82062-.687-20.86255a25.33438 25.33438 0 0 0 -31.92334-23.81061c-5.79346-1.67193-11.03906-1.82659-14.62256 2.62714a17.0001 17.0001 0 0 0 -17 17h16.25537a16.1496 16.1496 0 0 0 2.4541 11.93109c2.86963 4.21582 7.85938 7.2655 8.81983 12.274.93115 4.85351-2.36817 9.45868-5.8291 12.98669-3.46045 3.528-7.4751 7.02381-8.55567 11.84626a14.68871 14.68871 0 0 0 2.10352 10.56475 34.40329 34.40329 0 0 0 7.38623 8.13575 108.40184 108.40184 0 0 0 45.0376 23.04034c11.7041 2.81781 24.50586 3.54822 35.37109-1.6355a35.12563 35.12563 0 0 0 15.46484-48.96667z" fill="#2f2e41" transform="translate(-310.99935 -139.03722)"/><path d="m888.00065 760.96278h-190a1 1 0 0 1 0-2h190a1 1 0 0 1 0 2z" fill="#ccc" transform="translate(-310.99935 -139.03722)"/></svg>